<svg width="35" height="21" viewBox="0 0 35 21" fill="none" xmlns="http://www.w3.org/2000/svg">
<rect opacity="0.06" width="35" height="21" rx="10.5" fill="white"/>
<path d="M21.1 6.5H17.05C16.5529 6.5 16.15 6.90294 16.15 7.4V11.45C16.15 11.9471 16.5529 12.35 17.05 12.35H21.1C21.5971 12.35 22 11.9471 22 11.45V7.4C22 6.90294 21.5971 6.5 21.1 6.5Z" stroke="#787878" stroke-width="2" stroke-linecap="round" stroke-linejoin="round"/>
<path d="M16.15 9.6499H13.9C13.6613 9.6499 13.4324 9.74472 13.2636 9.91351C13.0948 10.0823 13 10.3112 13 10.5499V14.5999C13 14.8386 13.0948 15.0675 13.2636 15.2363C13.4324 15.4051 13.6613 15.4999 13.9 15.4999H17.95C18.1887 15.4999 18.4176 15.4051 18.5864 15.2363C18.7552 15.0675 18.85 14.8386 18.85 14.5999V12.3499" stroke="#787878" stroke-width="2" stroke-linecap="round" stroke-linejoin="round"/>
</svg>
