<svg width="22" height="14" viewBox="0 0 22 14" fill="none" xmlns="http://www.w3.org/2000/svg">
<path d="M8.5 4C8.5 3.44772 8.94772 3 9.5 3H12.5C13.0523 3 13.5 3.44772 13.5 4C13.5 4.55228 13.0523 5 12.5 5H9.5C8.94772 5 8.5 4.55228 8.5 4Z" fill="white"/>
<rect x="6.5" y="6" width="9" height="2" rx="1" fill="white"/>
<path d="M8.5 10C8.5 9.44772 8.94772 9 9.5 9H12.5C13.0523 9 13.5 9.44772 13.5 10C13.5 10.5523 13.0523 11 12.5 11H9.5C8.94772 11 8.5 10.5523 8.5 10Z" fill="white"/>
<path d="M5 1.62549C2.91667 1.62549 1.77236 2.8383 1.77236 4.33546V5.37549C1.77236 6.62549 0.748377 7.04543 0 7.04543" stroke="white" stroke-width="2"/>
<path d="M5 12.8789C2.91667 12.8789 1.77236 11.6661 1.77236 10.1689V9.12891C1.77236 7.87891 0.748377 7.45897 0 7.45897" stroke="white" stroke-width="2"/>
<path d="M17 1.62549C19.0833 1.62549 20.2276 2.8383 20.2276 4.33546V5.37549C20.2276 6.62549 21.2516 7.04543 22 7.04543" stroke="white" stroke-width="2"/>
<path d="M17 12.8789C19.0833 12.8789 20.2276 11.6661 20.2276 10.1689V9.12891C20.2276 7.87891 21.2516 7.45897 22 7.45897" stroke="white" stroke-width="2"/>
</svg>
