<svg width="102" height="32" viewBox="0 0 102 32" fill="none" xmlns="http://www.w3.org/2000/svg">
<path d="M48.1953 12.4902H50.3223V22.8262C50.3223 23.4766 50.2109 24.0244 49.9883 24.4697C49.7656 24.9209 49.4375 25.2607 49.0039 25.4893C48.5703 25.7236 48.04 25.8408 47.4131 25.8408C47.2256 25.8408 47.0322 25.8262 46.833 25.7969C46.6279 25.7734 46.4346 25.7383 46.2529 25.6914L46.2617 24.0391C46.3848 24.0625 46.5166 24.0801 46.6572 24.0918C46.792 24.1094 46.9209 24.1182 47.0439 24.1182C47.2959 24.1182 47.5068 24.0742 47.6768 23.9863C47.8467 23.8984 47.9756 23.7607 48.0635 23.5732C48.1514 23.3857 48.1953 23.1367 48.1953 22.8262V12.4902ZM48.0107 9.99414C48.0107 9.67188 48.1191 9.40527 48.3359 9.19434C48.5527 8.97754 48.8486 8.86914 49.2236 8.86914C49.6045 8.86914 49.9004 8.97754 50.1113 9.19434C50.3281 9.40527 50.4365 9.67188 50.4365 9.99414C50.4365 10.3105 50.3281 10.5742 50.1113 10.7852C49.9004 10.9961 49.6045 11.1016 49.2236 11.1016C48.8486 11.1016 48.5527 10.9961 48.3359 10.7852C48.1191 10.5742 48.0107 10.3105 48.0107 9.99414ZM57.9424 19.4248C57.9424 19.2139 57.8896 19.0234 57.7842 18.8535C57.6787 18.6777 57.4766 18.5195 57.1777 18.3789C56.8848 18.2383 56.4512 18.1094 55.877 17.9922C55.373 17.8809 54.9102 17.749 54.4883 17.5967C54.0723 17.4385 53.7148 17.248 53.416 17.0254C53.1172 16.8027 52.8857 16.5391 52.7217 16.2344C52.5576 15.9297 52.4756 15.5781 52.4756 15.1797C52.4756 14.793 52.5605 14.4268 52.7305 14.0811C52.9004 13.7354 53.1436 13.4307 53.46 13.167C53.7764 12.9033 54.1602 12.6953 54.6113 12.543C55.0684 12.3906 55.5781 12.3145 56.1406 12.3145C56.9375 12.3145 57.6201 12.4492 58.1885 12.7188C58.7627 12.9824 59.2021 13.3428 59.5068 13.7998C59.8115 14.251 59.9639 14.7607 59.9639 15.3291H57.8457C57.8457 15.0771 57.7812 14.8428 57.6523 14.626C57.5293 14.4033 57.3418 14.2246 57.0898 14.0898C56.8379 13.9492 56.5215 13.8789 56.1406 13.8789C55.7773 13.8789 55.4756 13.9375 55.2354 14.0547C55.001 14.166 54.8252 14.3125 54.708 14.4941C54.5967 14.6758 54.541 14.875 54.541 15.0918C54.541 15.25 54.5703 15.3936 54.6289 15.5225C54.6934 15.6455 54.7988 15.7598 54.9453 15.8652C55.0918 15.9648 55.291 16.0586 55.543 16.1465C55.8008 16.2344 56.123 16.3193 56.5098 16.4014C57.2363 16.5537 57.8604 16.75 58.3818 16.9902C58.9092 17.2246 59.3135 17.5293 59.5947 17.9043C59.876 18.2734 60.0166 18.7422 60.0166 19.3105C60.0166 19.7324 59.9258 20.1191 59.7441 20.4707C59.5684 20.8164 59.3105 21.1182 58.9707 21.376C58.6309 21.6279 58.2236 21.8242 57.749 21.9648C57.2803 22.1055 56.7529 22.1758 56.167 22.1758C55.3057 22.1758 54.5762 22.0234 53.9785 21.7188C53.3809 21.4082 52.9268 21.0127 52.6162 20.5322C52.3115 20.0459 52.1592 19.542 52.1592 19.0205H54.207C54.2305 19.4131 54.3389 19.7266 54.5322 19.9609C54.7314 20.1895 54.9775 20.3564 55.2705 20.4619C55.5693 20.5615 55.877 20.6113 56.1934 20.6113C56.5742 20.6113 56.8936 20.5615 57.1514 20.4619C57.4092 20.3564 57.6055 20.2158 57.7402 20.04C57.875 19.8584 57.9424 19.6533 57.9424 19.4248ZM61.4668 17.3506V17.1484C61.4668 16.4629 61.5664 15.8271 61.7656 15.2412C61.9648 14.6494 62.252 14.1367 62.627 13.7031C63.0078 13.2637 63.4707 12.9238 64.0156 12.6836C64.5664 12.4375 65.1875 12.3145 65.8789 12.3145C66.5762 12.3145 67.1973 12.4375 67.7422 12.6836C68.293 12.9238 68.7588 13.2637 69.1396 13.7031C69.5205 14.1367 69.8105 14.6494 70.0098 15.2412C70.209 15.8271 70.3086 16.4629 70.3086 17.1484V17.3506C70.3086 18.0361 70.209 18.6719 70.0098 19.2578C69.8105 19.8438 69.5205 20.3564 69.1396 20.7959C68.7588 21.2295 68.2959 21.5693 67.751 21.8154C67.2061 22.0557 66.5879 22.1758 65.8965 22.1758C65.1992 22.1758 64.5752 22.0557 64.0244 21.8154C63.4795 21.5693 63.0166 21.2295 62.6357 20.7959C62.2549 20.3564 61.9648 19.8438 61.7656 19.2578C61.5664 18.6719 61.4668 18.0361 61.4668 17.3506ZM63.585 17.1484V17.3506C63.585 17.7783 63.6289 18.1826 63.7168 18.5635C63.8047 18.9443 63.9424 19.2783 64.1299 19.5654C64.3174 19.8525 64.5576 20.0781 64.8506 20.2422C65.1436 20.4062 65.4922 20.4883 65.8965 20.4883C66.2891 20.4883 66.6289 20.4062 66.916 20.2422C67.209 20.0781 67.4492 19.8525 67.6367 19.5654C67.8242 19.2783 67.9619 18.9443 68.0498 18.5635C68.1436 18.1826 68.1904 17.7783 68.1904 17.3506V17.1484C68.1904 16.7266 68.1436 16.3281 68.0498 15.9531C67.9619 15.5723 67.8213 15.2354 67.6279 14.9424C67.4404 14.6494 67.2002 14.4209 66.9072 14.2568C66.6201 14.0869 66.2773 14.002 65.8789 14.002C65.4805 14.002 65.1348 14.0869 64.8418 14.2568C64.5547 14.4209 64.3174 14.6494 64.1299 14.9424C63.9424 15.2354 63.8047 15.5723 63.7168 15.9531C63.6289 16.3281 63.585 16.7266 63.585 17.1484ZM74.1846 14.5205V22H72.0664V12.4902H74.0615L74.1846 14.5205ZM73.8066 16.8936L73.1211 16.8848C73.127 16.2109 73.2207 15.5928 73.4023 15.0303C73.5898 14.4678 73.8477 13.9844 74.1758 13.5801C74.5098 13.1758 74.9082 12.8652 75.3711 12.6484C75.834 12.4258 76.3496 12.3145 76.918 12.3145C77.375 12.3145 77.7881 12.3789 78.1572 12.5078C78.5322 12.6309 78.8516 12.833 79.1152 13.1143C79.3848 13.3955 79.5898 13.7617 79.7305 14.2129C79.8711 14.6582 79.9414 15.2061 79.9414 15.8564V22H77.8145V15.8477C77.8145 15.3906 77.7471 15.0303 77.6123 14.7666C77.4834 14.4971 77.293 14.3066 77.041 14.1953C76.7949 14.0781 76.4873 14.0195 76.1182 14.0195C75.7549 14.0195 75.4297 14.0957 75.1426 14.248C74.8555 14.4004 74.6123 14.6084 74.4131 14.8721C74.2197 15.1357 74.0703 15.4404 73.9648 15.7861C73.8594 16.1318 73.8066 16.501 73.8066 16.8936ZM87.8252 19.7588V12.4902H89.9521V22H87.9482L87.8252 19.7588ZM88.124 17.7812L88.8359 17.7637C88.8359 18.4023 88.7656 18.9912 88.625 19.5303C88.4844 20.0635 88.2676 20.5293 87.9746 20.9277C87.6816 21.3203 87.3066 21.6279 86.8496 21.8506C86.3926 22.0674 85.8447 22.1758 85.2061 22.1758C84.7432 22.1758 84.3184 22.1084 83.9316 21.9736C83.5449 21.8389 83.2109 21.6309 82.9297 21.3496C82.6543 21.0684 82.4404 20.7021 82.2881 20.251C82.1357 19.7998 82.0596 19.2607 82.0596 18.6338V12.4902H84.1777V18.6514C84.1777 18.9971 84.2188 19.2871 84.3008 19.5215C84.3828 19.75 84.4941 19.9346 84.6348 20.0752C84.7754 20.2158 84.9395 20.3154 85.127 20.374C85.3145 20.4326 85.5137 20.4619 85.7246 20.4619C86.3281 20.4619 86.8027 20.3447 87.1484 20.1104C87.5 19.8701 87.749 19.5479 87.8955 19.1436C88.0479 18.7393 88.124 18.2852 88.124 17.7812ZM94.25 14.3008V22H92.1318V12.4902H94.1533L94.25 14.3008ZM97.1592 12.4287L97.1416 14.3975C97.0127 14.374 96.8721 14.3564 96.7197 14.3447C96.5732 14.333 96.4268 14.3271 96.2803 14.3271C95.917 14.3271 95.5977 14.3799 95.3223 14.4854C95.0469 14.585 94.8154 14.7314 94.6279 14.9248C94.4463 15.1123 94.3057 15.3408 94.2061 15.6104C94.1064 15.8799 94.0479 16.1816 94.0303 16.5156L93.5469 16.5508C93.5469 15.9531 93.6055 15.3994 93.7227 14.8896C93.8398 14.3799 94.0156 13.9316 94.25 13.5449C94.4902 13.1582 94.7891 12.8564 95.1465 12.6396C95.5098 12.4229 95.9287 12.3145 96.4033 12.3145C96.5322 12.3145 96.6699 12.3262 96.8164 12.3496C96.9688 12.373 97.083 12.3994 97.1592 12.4287ZM100.754 8.5V22H98.627V8.5H100.754Z" fill="white"/>
<circle opacity="0.15" cx="16" cy="16" r="16" fill="white"/>
<path d="M6 15.7956V15.2998C6 15.1155 6.09142 14.982 6.27426 14.8994L6.43503 14.8326C6.77548 14.6928 6.94571 14.3782 6.94571 13.8888C6.94571 13.3994 7.02452 12.9735 7.18214 12.6112C7.34606 12.2489 7.56357 11.9597 7.83468 11.7436C8.37689 11.3114 9.04203 11.0953 9.83013 11.0953C9.88687 11.0953 9.93415 11.1176 9.97198 11.1621C10.0161 11.2002 10.0382 11.2479 10.0382 11.3051V12.6112C10.0382 12.6684 10.0193 12.7161 9.98144 12.7542C9.94361 12.7924 9.90263 12.8146 9.8585 12.821C9.05149 12.9227 8.64799 13.3008 8.64799 13.9555C8.64799 14.3559 8.57864 14.7055 8.43993 15.0042C8.30123 15.303 8.14046 15.4841 7.95762 15.5477C8.14046 15.6112 8.30123 15.7987 8.43993 16.1102C8.57864 16.4216 8.64799 16.7648 8.64799 17.1398C8.64799 17.7945 9.05149 18.1727 9.8585 18.2744C9.90263 18.2807 9.94361 18.303 9.98144 18.3411C10.0193 18.3792 10.0382 18.4269 10.0382 18.4841V19.7903C10.0382 19.8475 10.0161 19.8951 9.97198 19.9333C9.93415 19.9778 9.88687 20 9.83013 20C9.04203 20 8.37689 19.7839 7.83468 19.3517C7.56357 19.1356 7.34606 18.8464 7.18214 18.4841C7.02452 18.1218 6.94571 17.696 6.94571 17.2066C6.94571 16.7172 6.77548 16.4025 6.43503 16.2627L6.27426 16.196C6.09142 16.1133 6 15.9799 6 15.7956Z" fill="white"/>
<path d="M10.954 16.4153H12.5995C12.6689 16.4153 12.7288 16.4407 12.7792 16.4915C12.8296 16.5424 12.8548 16.6028 12.8548 16.6727V18.2362C12.8548 18.3061 12.8296 18.3665 12.7792 18.4174C12.7288 18.4682 12.6689 18.4936 12.5995 18.4936H10.954C10.8846 18.4936 10.8247 18.4682 10.7743 18.4174C10.7238 18.3665 10.6986 18.3061 10.6986 18.2362V16.6727C10.6986 16.6028 10.7238 16.5424 10.7743 16.4915C10.8247 16.4407 10.8846 16.4153 10.954 16.4153ZM10.954 13.0784H12.5995C12.6689 13.0784 12.7288 13.1038 12.7792 13.1547C12.8296 13.2055 12.8548 13.2659 12.8548 13.3358V14.8994C12.8548 14.9693 12.8296 15.0297 12.7792 15.0805C12.7288 15.1314 12.6689 15.1568 12.5995 15.1568H10.954C10.8846 15.1568 10.8247 15.1314 10.7743 15.0805C10.7238 15.0297 10.6986 14.9693 10.6986 14.8994V13.3358C10.6986 13.2659 10.7238 13.2055 10.7743 13.1547C10.8247 13.1038 10.8846 13.0784 10.954 13.0784Z" fill="white"/>
<path d="M17.1164 11H18.3836C18.4404 11 18.4877 11.0222 18.5255 11.0667C18.5696 11.1049 18.5917 11.1462 18.5917 11.1907C18.5917 11.2288 18.5854 11.2638 18.5728 11.2956L15.3763 19.0085C15.3006 19.1992 15.1619 19.2945 14.9602 19.2945H13.7213C13.6645 19.2945 13.6141 19.2722 13.57 19.2278C13.5321 19.1896 13.5132 19.1483 13.5132 19.1038C13.5132 19.0657 13.5195 19.0307 13.5321 18.9989L16.7003 11.286C16.7822 11.0953 16.9209 11 17.1164 11Z" fill="white"/>
<path d="M19.8275 11H21.0948C21.1515 11 21.1988 11.0222 21.2366 11.0667C21.2808 11.1049 21.3028 11.1462 21.3028 11.1907C21.3028 11.2288 21.2965 11.2638 21.2839 11.2956L18.0874 19.0085C18.0118 19.1992 17.8731 19.2945 17.6713 19.2945H16.4324C16.3757 19.2945 16.3253 19.2722 16.2811 19.2278C16.2433 19.1896 16.2244 19.1483 16.2244 19.1038C16.2244 19.0657 16.2307 19.0307 16.2433 18.9989L19.4114 11.286C19.4934 11.0953 19.6321 11 19.8275 11Z" fill="white"/>
<path d="M26 15.2998V15.7956C26 15.9799 25.9086 16.1133 25.7257 16.196L25.565 16.2627C25.2245 16.4025 25.0543 16.7172 25.0543 17.2066C25.0543 17.696 24.9723 18.1218 24.8084 18.4841C24.6508 18.8464 24.4364 19.1356 24.1653 19.3517C23.6231 19.7839 22.958 20 22.1699 20C22.1131 20 22.0627 19.9778 22.0186 19.9333C21.9807 19.8951 21.9618 19.8475 21.9618 19.7903V18.4841C21.9618 18.4269 21.9807 18.3792 22.0186 18.3411C22.0564 18.303 22.0974 18.2807 22.1415 18.2744C22.9485 18.1727 23.352 17.7945 23.352 17.1398C23.352 16.7648 23.4214 16.4216 23.5601 16.1102C23.6988 15.7987 23.8595 15.6112 24.0424 15.5477C23.8595 15.4841 23.6988 15.303 23.5601 15.0042C23.4214 14.7055 23.352 14.3559 23.352 13.9555C23.352 13.3008 22.9485 12.9227 22.1415 12.821C22.0974 12.8146 22.0564 12.7924 22.0186 12.7542C21.9807 12.7161 21.9618 12.6684 21.9618 12.6112V11.3051C21.9618 11.2479 21.9807 11.2002 22.0186 11.1621C22.0627 11.1176 22.1131 11.0953 22.1699 11.0953C22.958 11.0953 23.6231 11.3114 24.1653 11.7436C24.4364 11.9597 24.6508 12.2489 24.8084 12.6112C24.9723 12.9735 25.0543 13.3994 25.0543 13.8888C25.0543 14.3782 25.2245 14.6928 25.565 14.8326L25.7257 14.8994C25.9086 14.982 26 15.1155 26 15.2998Z" fill="white"/>
</svg>
